<svg xmlns="http://www.w3.org/2000/svg" viewBox="0 0 339 339"><defs><style>.cls-1{fill:#2f2521;}.cls-2{fill:#1a8590;}.cls-3{fill:#e2443a;}.cls-4{fill:#e5a625;}.cls-5{font-size:85px;fill:#fff;font-family:Montserrat-Black, Montserrat;}.cls-6{letter-spacing:0.09em;}</style></defs><title>Asset 3</title><g id="Layer_2" data-name="Layer 2"><g id="Layer_1-2" data-name="Layer 1"><rect class="cls-1" width="339" height="339"/><path class="cls-2" d="M22,236.61V180.38c0-5.18,2.29-7.49,7.49-7.49H72c5.18,0,7.52,2.28,7.56,7.4,0,6.07.09,12.13,0,18.2,0,2,.46,2.65,2.52,2.6,5.71-.13,11.42,0,17.13-.09,1.86,0,2.62.27,2.6,2.43q-.13,33.86,0,67.73c0,2-.64,2.34-2.43,2.31-5.8-.1-11.6,0-17.4-.07-1.83,0-2.46.44-2.43,2.37.12,5.71,0,11.42,0,17.13s-2.22,7.8-7.75,7.81h-42c-5.7,0-7.83-2.19-7.83-7.95Q22,264.73,22,236.61Z"/><path class="cls-2" d="M109.07,236.8V180.58c0-5.59,2.13-7.69,7.77-7.69h42c5.53,0,7.71,2.2,7.71,7.78V293.12c0,5.52-2.19,7.69-7.8,7.69h-42c-5.59,0-7.68-2.12-7.68-7.78Z"/><path class="cls-3" d="M130.08,23.36c18.1,0,36.22.37,54.31-.15,9.54-.28,12.15,7.13,8.6,13.94-16.28,31.28-32.33,62.71-48.45,94.09-2.6,5.06-5.25,10.09-7.8,15.18-1.38,2.75-3.33,4.79-6.48,4.81s-5.15-2-6.56-4.72Q95.4,91.37,67,36.25a9.9,9.9,0,0,1-1.38-5.61c.56-4.76,3.4-7.27,8.29-7.27Z"/><path class="cls-3" d="M29,23.36c5.08,0,10.18.18,15.24,0,5.67-.25,9.29,2.12,11.84,7.19,11.25,22.06,22.73,44,34,66.11.49.95.93,1.92,1.48,2.84a14.06,14.06,0,0,1,0,14.89c-5.77,10.71-11.2,21.6-16.75,32.45a7,7,0,0,1-6.19,4.44,6.93,6.93,0,0,1-6.45-4.44c-.16-.33-.34-.62-.5-.95q-16-31.18-32.07-62.34Q17.71,60.33,5.83,37.07A11.66,11.66,0,0,1,4,30.75c.4-4.65,3.42-7.35,8.17-7.37C17.8,23.35,23.41,23.36,29,23.36Z"/><path class="cls-4" d="M268,87.69H211.79c-5.58,0-7.8-2.18-7.8-7.68V31c0-5.45,2.38-7.78,7.84-7.78h112.1c5.46,0,8,2.53,8.06,8v48.7c0,5.42-2.4,7.78-7.83,7.78Z"/><path class="cls-4" d="M268.86,95.5c9.81,0,19.62.09,29.45,0,2.35,0,2.71.77,2.69,2.87-.09,15,0,30,0,45,0,5.37-2.55,7.87-8.12,7.89H244.16c-5.34-.07-7.87-2.62-7.87-7.89v-45c0-2.49.75-2.89,3-2.86C249.06,95.58,259,95.5,268.86,95.5Z"/><text class="cls-5" transform="translate(195.11 228.74)">2K<tspan class="cls-6"><tspan x="11.82" y="67">17</tspan></tspan></text></g></g></svg>