<svg xmlns="http://www.w3.org/2000/svg" viewBox="0 0 1258.84 286.86"><defs><style>@import url('https://fonts.googleapis.com/css?family=Montserrat:200,400,700');.cls-1{fill:#1a8590;}.cls-2{fill:#e2443a;}.cls-3{fill:#e5a625;}.cls-4{font-size:102.69px;fill:#f6f3ea;font-family:Montserrat-Regular, Montserrat;}</style></defs><title>Asset 4</title><g id="Layer_2" data-name="Layer 2"><g id="Layer_1-2" data-name="Layer 1"><path class="cls-1" d="M644.51,129.73V27c0-9.46,4.19-13.68,13.68-13.68h77.76c9.46,0,13.73,4.16,13.82,13.52,0,11.08.16,22.17,0,33.25,0,3.57.84,4.84,4.6,4.76,10.44-.24,20.87,0,31.31-.16,3.41,0,4.79.49,4.76,4.43q-.24,61.86,0,123.74c0,3.6-1.16,4.27-4.43,4.22-10.6-.19-21.2,0-31.79-.14-3.35,0-4.49.81-4.43,4.33.22,10.44,0,20.87,0,31.31s-4.06,14.25-14.17,14.27H658.81c-10.41,0-14.3-4-14.3-14.52Q644.51,181.09,644.51,129.73Z"/><path class="cls-1" d="M803.67,130.08V27.34c0-10.22,3.89-14.06,14.19-14.06h76.75c10.11,0,14.09,4,14.09,14.22V233c0,10.08-4,14.06-14.25,14.06H817.7c-10.22,0-14-3.87-14-14.22Z"/><path class="cls-2" d="M230.35,13.31c33.06,0,66.18.68,99.22-.27,17.44-.51,22.2,13,15.71,25.47-29.74,57.15-59.07,114.58-88.52,171.92-4.76,9.25-9.6,18.44-14.25,27.74-2.51,5-6.08,8.76-11.84,8.79s-9.41-3.65-12-8.62Q167,137.57,115.09,36.86a18.09,18.09,0,0,1-2.51-10.25c1-8.71,6.22-13.27,15.14-13.27Z"/><path class="cls-2" d="M45.72,13.31c9.27,0,18.6.32,27.85,0,10.35-.46,17,3.87,21.63,13.14,20.55,40.31,41.53,80.43,62.16,120.8.89,1.73,1.7,3.51,2.7,5.19a25.68,25.68,0,0,1,0,27.2c-10.54,19.57-20.47,39.47-30.6,59.29a12.81,12.81,0,0,1-11.3,8.11,12.65,12.65,0,0,1-11.79-8.11c-.3-.59-.62-1.14-.92-1.73q-29.25-57-58.59-113.9Q25,80.85,3.33,38.34A21.3,21.3,0,0,1,0,26.8c.73-8.49,6.25-13.44,14.92-13.46C25.2,13.28,35.44,13.31,45.72,13.31Z"/><path class="cls-3" d="M492.24,131.05H389.51c-10.19,0-14.25-4-14.25-14V27.56c0-9.95,4.35-14.22,14.33-14.22H594.41c10,0,14.71,4.62,14.73,14.55v89c0,9.9-4.38,14.22-14.3,14.22Z"/><path class="cls-3" d="M493.78,145.33c17.92,0,35.85.16,53.8,0,4.3,0,4.95,1.41,4.92,5.24-.16,27.39,0,54.77,0,82.16,0,9.81-4.65,14.38-14.84,14.41h-89c-9.76-.14-14.38-4.79-14.38-14.41V150.57c0-4.54,1.38-5.27,5.41-5.22C457.61,145.46,475.7,145.33,493.78,145.33Z"/><text class="cls-4" transform="translate(933.84 87.28)">WHAT<tspan x="0" y="79.87">THE</tspan><tspan x="0" y="159.73">HACK</tspan></text></g></g></svg>