<svg xmlns="http://www.w3.org/2000/svg" viewBox="0 0 1921 234.02"><defs><style>.cls-1{fill:#2f2521;stroke:#000;stroke-miterlimit:10;}</style></defs><title>Asset 1</title><g id="Layer_2" data-name="Layer 2"><g id="Layer_1-2" data-name="Layer 1"><path class="cls-1" d="M1920.5,134.5c-31.56-20.19-78.4-42.48-128-32-38.36,8.11-44,28.55-85,50-71.56,37.44-167.57,34.36-236,3-58.38-26.75-58.69-56.69-117-70-55.91-12.77-103.67,3.79-115,8-57.51,21.38-57.67,52.43-118,91-20.17,12.89-83.76,50.09-167,49-82.1-1.07-143.41-38.86-161-50-65.33-41.38-65.49-75.51-110-83-51.07-8.59-72.08,43.45-143,56-70.62,12.49-77.54-34.28-163-39-117.1-6.47-155.51,79.61-245,63-35.8-6.64-79.85-47.31-132-112V.5h1920Z"/></g></g></svg>